<?xml version="1.0" standalone="no"?>
<!DOCTYPE svg PUBLIC "-//W3C//DTD SVG 20010904//EN"
 "http://www.w3.org/TR/2001/REC-SVG-20010904/DTD/svg10.dtd">
<svg version="1.0" xmlns="http://www.w3.org/2000/svg"
 width="800.000000pt" height="800.000000pt" viewBox="0 0 800.000000 800.000000"
 preserveAspectRatio="xMidYMid meet">
<metadata>Created by Svg.la</metadata>
<g transform="translate(0.000000,800.000000) scale(0.100000,-0.100000)"
fill="#000000" stroke="none">
<path d="M0 4000 l0 -4000 4000 0 4000 0 0 4000 0 4000 -4000 0 -4000 0 0
-4000z m4031 1704 c65 -313 130 -498 235 -661 19 -30 32 -58 29 -63 -3 -5 0
-12 6 -16 8 -5 9 -3 4 6 -5 9 -4 11 4 6 6 -4 10 -14 9 -21 -2 -8 0 -13 4 -12
3 1 19 -9 34 -23 15 -14 24 -19 20 -12 -5 7 -2 27 5 44 l12 30 23 -43 c12 -24
19 -48 16 -54 -3 -5 -2 -7 3 -3 5 5 14 0 20 -10 28 -40 75 -132 75 -145 0 -8
-19 -32 -42 -52 l-41 -38 -86 7 c-47 3 -104 11 -126 17 -51 15 -108 73 -100
103 4 14 3 17 -3 8 -18 -26 -75 144 -97 290 -8 54 -15 100 -15 103 0 3 -4 5
-9 5 -4 0 -11 -30 -15 -67 -12 -135 -80 -335 -134 -397 -31 -34 -99 -57 -191
-63 l-89 -6 -46 39 c-25 21 -46 45 -46 53 0 13 99 197 124 230 8 10 13 6 21
-19 l11 -32 40 53 c145 195 246 453 305 776 7 40 14 71 16 69 2 -1 12 -47 24
-102z m476 -220 c-8 -21 -31 -108 -52 -191 -35 -140 -40 -153 -61 -153 -34 0
-35 22 -5 86 15 33 49 114 76 181 27 68 50 121 52 119 2 -1 -3 -20 -10 -42z
m-928 -137 c40 -93 71 -176 69 -185 -2 -10 -13 -17 -27 -17 -23 0 -27 9 -66
165 -23 91 -46 176 -50 190 -16 52 4 10 74 -153z m-89 -251 c42 -72 47 -98 19
-104 -14 -2 -67 111 -126 268 -6 18 50 -69 107 -164z m1108 67 c-40 -97 -58
-132 -43 -83 7 22 6 23 -8 11 -9 -7 -14 -18 -10 -24 4 -6 1 -7 -7 -2 -10 6
-12 4 -7 -9 4 -9 3 -15 -2 -12 -9 6 -21 -15 -21 -35 0 -12 27 -11 33 1 3 6 4
5 3 -2 -4 -19 -35 -22 -42 -4 -8 20 54 128 68 120 7 -4 8 -2 4 4 -6 9 59 132
69 132 2 0 -15 -44 -37 -97z m362 -147 c0 -3 -4 -8 -10 -11 -5 -3 -10 -1 -10
4 0 6 5 11 10 11 6 0 10 -2 10 -4z m-1779 -83 c13 -16 12 -17 -3 -4 -17 13
-22 21 -14 21 2 0 10 -8 17 -17z m-31 -37 c0 -12 -5 -7 -19 24 -11 24 -11 24
3 6 9 -11 16 -24 16 -30z m-339 -53 c13 -17 13 -17 -6 -3 -11 8 -22 16 -24 17
-2 2 0 3 6 3 6 0 17 -8 24 -17z m40 -10 c-11 -4 -8 -10 10 -25 23 -19 7 -15
-18 5 -14 11 -8 27 10 26 7 0 6 -3 -2 -6z m3349 -853 l0 -510 -2195 0 -2195 0
0 510 0 510 2195 0 2195 0 0 -510z m-3205 -785 c6 -2 -28 -3 -75 -4 -48 0 -77
4 -66 8 18 7 118 4 141 -4z"/>
<path d="M4435 4831 c-29 -6 -39 -26 -13 -26 7 0 14 -8 16 -18 3 -16 1 -17
-17 -5 -29 18 -51 -3 -33 -32 6 -10 8 -21 3 -24 -4 -3 -8 -18 -7 -33 1 -40 46
-55 83 -27 28 22 46 53 22 39 -8 -5 -6 0 4 12 21 24 22 49 2 61 -9 4 -17 19
-20 31 -5 29 -4 28 -40 22z"/>
<path d="M3210 4010 l0 -300 60 0 60 0 0 134 0 134 31 26 c33 28 50 32 79 16
29 -16 40 -66 40 -191 l0 -119 60 0 60 0 0 138 c0 156 -10 203 -50 244 -25 25
-36 28 -89 28 -53 0 -64 -4 -96 -31 l-35 -31 0 126 0 126 -60 0 -60 0 0 -300z"/>
<path d="M3717 4292 c-21 -23 -22 -76 -1 -96 20 -20 78 -21 98 -1 26 27 29 56
9 84 -26 33 -81 41 -106 13z"/>
<path d="M2218 3996 l-3 -286 63 0 62 0 0 105 0 105 28 0 c36 0 49 -15 110
-120 l48 -85 72 -3 c40 -2 72 -1 72 2 0 8 -122 189 -144 215 -14 16 -17 25 -9
28 34 12 80 52 96 83 23 45 19 130 -9 167 -41 55 -85 68 -241 71 l-142 4 -3
-286z m259 158 c21 -21 24 -32 19 -62 -8 -50 -38 -72 -103 -72 l-53 0 0 80 0
80 55 0 c47 0 60 -4 82 -26z"/>
<path d="M4470 3995 l0 -285 65 0 65 0 0 105 0 105 28 0 c35 0 46 -12 108
-122 l49 -88 73 0 c56 0 71 3 66 13 -4 6 -41 61 -81 121 -40 60 -73 109 -73
110 0 1 16 10 35 20 91 49 108 183 31 253 -47 43 -90 53 -238 53 l-128 0 0
-285z m258 169 c17 -12 22 -25 22 -59 0 -58 -32 -85 -101 -85 l-49 0 0 80 0
80 53 0 c31 0 61 -6 75 -16z"/>
<path d="M4003 4219 c-29 -9 -32 -13 -35 -57 -3 -45 -4 -47 -35 -50 -32 -3
-33 -5 -33 -48 0 -42 1 -44 30 -44 l30 0 0 -79 c0 -107 15 -181 44 -209 26
-26 86 -38 140 -28 35 7 36 8 36 51 l0 44 -42 3 c-39 3 -44 6 -49 33 -4 17 -7
65 -8 108 l-1 77 50 0 50 0 0 45 0 45 -45 0 -45 0 0 60 c0 59 0 60 -27 59 -16
0 -42 -5 -60 -10z"/>
<path d="M2803 4099 c-104 -51 -140 -213 -70 -316 48 -71 177 -104 265 -67
165 69 178 304 21 384 -53 28 -159 27 -216 -1z m172 -101 c24 -29 27 -38 23
-94 -4 -70 -22 -99 -68 -109 -62 -14 -110 40 -110 122 0 101 96 151 155 81z"/>
<path d="M5060 4106 c-32 -12 -35 -16 -38 -59 -2 -26 -2 -47 0 -47 2 0 27 9
56 20 85 32 125 23 145 -32 5 -14 -3 -18 -51 -23 -128 -15 -175 -41 -192 -106
-37 -135 120 -214 228 -116 l22 20 0 -26 c0 -26 2 -27 55 -27 l55 0 0 145 c0
167 -12 212 -65 245 -38 24 -157 27 -215 6z m165 -217 c22 -34 -31 -99 -80
-99 -36 0 -55 15 -55 46 0 29 23 47 73 55 23 3 45 7 49 8 4 0 10 -4 13 -10z"/>
<path d="M3706 4094 c-3 -9 -6 -99 -6 -200 l0 -184 60 0 60 0 0 200 0 200 -54
0 c-40 0 -55 -4 -60 -16z"/>
<path d="M5413 4098 c72 -176 157 -397 157 -408 0 -9 -7 -26 -16 -38 -12 -17
-25 -22 -60 -22 l-44 0 0 -45 c0 -42 1 -44 34 -51 70 -13 142 20 173 79 9 18
56 137 103 265 l87 232 -62 0 -62 0 -38 -132 c-21 -73 -41 -139 -45 -147 -5
-8 -16 15 -29 60 -12 41 -32 106 -45 144 l-23 70 -68 3 c-52 2 -66 0 -62 -10z"/>
</g>
</svg>
