<svg version="1.1" id="Layer_1" xmlns="http://www.w3.org/2000/svg" xmlns:xlink="http://www.w3.org/1999/xlink" x="0px" y="0px"
	 width="100%" viewBox="0 0 544 459" enable-background="new 0 0 544 459" xml:space="preserve">
<path fill="#000000" opacity="1.000000" stroke="none" 
	d="
M324.000000,460.000000 
	C216.000031,460.000000 108.500053,460.000000 1.000058,460.000000 
	C1.000038,307.000061 1.000038,154.000122 1.000019,1.000140 
	C182.333237,1.000093 363.666473,1.000093 544.999756,1.000047 
	C544.999878,153.999863 544.999878,306.999725 544.999939,459.999786 
	C471.500000,460.000000 398.000000,460.000000 324.000000,460.000000 
M250.491150,271.568787 
	C250.964844,270.365051 251.438538,269.161316 252.311707,267.354370 
	C253.055450,263.192047 253.799179,259.029694 254.769073,253.973267 
	C254.327255,246.556976 254.835693,238.929199 253.242020,231.769287 
	C250.111099,217.702881 245.811157,203.896667 242.863373,190.003281 
	C245.009583,190.128036 247.295517,189.814362 249.279892,190.446854 
	C265.222168,195.528244 281.107544,200.788116 296.789001,206.859650 
	C293.132202,207.071640 289.475433,207.283646 285.036377,207.420898 
	C280.661072,208.328384 276.039124,208.625290 271.962494,210.272095 
	C263.802765,213.568329 261.238190,221.155746 265.769470,228.682404 
	C268.303070,232.890823 271.408112,237.250137 275.325226,240.039444 
	C287.895416,248.990433 300.666595,257.738617 313.903503,265.656891 
	C339.436371,280.930511 365.578979,295.191711 390.988861,310.661011 
	C403.332703,318.175812 415.332031,326.667114 422.960968,339.743866 
	C422.285065,333.622070 418.495026,329.250000 414.619934,325.026794 
	C401.005341,310.188934 384.709015,298.582092 368.278381,287.203583 
	C342.973694,269.679565 317.452423,252.468277 292.152740,234.937149 
	C287.472900,231.694290 283.406525,227.566193 279.057007,223.846664 
	C279.270691,223.122910 279.484375,222.399155 279.698059,221.675400 
	C286.439362,221.675400 293.180664,221.675400 300.815125,221.998779 
	C303.285034,222.003342 305.792603,222.284592 308.216919,221.954407 
	C313.143951,221.283356 318.494843,221.593842 322.564819,216.518433 
	C324.947357,211.553329 323.471771,207.259323 319.665070,203.932938 
	C316.185974,200.892838 312.453918,197.922897 308.367218,195.833832 
	C285.244171,184.013535 260.599670,176.926636 234.482742,172.605026 
	C233.773788,171.385696 233.064850,170.166382 232.170395,168.220123 
	C222.250824,148.341507 209.843994,130.282959 193.830627,114.857880 
	C194.340408,116.837006 195.509750,118.338966 196.671890,119.846474 
	C208.519913,135.215439 217.494202,152.245316 225.626358,170.685196 
	C225.426910,171.184250 225.227448,171.683304 224.096680,172.118271 
	C218.803925,172.432236 213.464081,172.403061 208.226807,173.121460 
	C188.807770,175.785233 179.363190,187.078445 181.217743,205.608856 
	C181.718292,207.426804 182.218842,209.244751 182.778519,211.795258 
	C183.119766,212.884155 183.461014,213.973053 183.995346,215.792969 
	C190.685425,233.492126 200.152908,249.605103 212.527817,263.866852 
	C216.822693,268.816559 221.963943,273.242920 227.368881,276.963776 
	C233.789078,281.383514 240.742722,281.554443 247.716522,275.907013 
	C248.474319,274.602844 249.232117,273.298676 250.491150,271.568787 
z"/>
<path fill="#F7F7F7" opacity="1.000000" stroke="none" 
	d="
M299.921967,221.675400 
	C293.180664,221.675400 286.439362,221.675400 279.698059,221.675400 
	C279.484375,222.399155 279.270691,223.122910 279.057007,223.846664 
	C283.406525,227.566193 287.472900,231.694290 292.152740,234.937149 
	C317.452423,252.468277 342.973694,269.679565 368.278381,287.203583 
	C384.709015,298.582092 401.005341,310.188934 414.619934,325.026794 
	C418.495026,329.250000 422.285065,333.622070 422.960968,339.743866 
	C415.332031,326.667114 403.332703,318.175812 390.988861,310.661011 
	C365.578979,295.191711 339.436371,280.930511 313.903503,265.656891 
	C300.666595,257.738617 287.895416,248.990433 275.325226,240.039444 
	C271.408112,237.250137 268.303070,232.890823 265.769470,228.682404 
	C261.238190,221.155746 263.802765,213.568329 271.962494,210.272095 
	C276.039124,208.625290 280.661072,208.328384 285.474976,207.781860 
	C290.386139,211.702637 294.877014,215.239914 299.315521,218.841751 
	C300.178650,219.542191 302.362946,220.178253 299.921967,221.675400 
z"/>
<path fill="#FAFAFA" opacity="1.000000" stroke="none" 
	d="
M181.344543,204.888123 
	C179.363190,187.078445 188.807770,175.785233 208.226807,173.121460 
	C213.464081,172.403061 218.803925,172.432236 224.882965,172.383789 
	C228.777390,172.767761 231.885498,172.886215 234.993622,173.004654 
	C260.599670,176.926636 285.244171,184.013535 308.367218,195.833832 
	C312.453918,197.922897 316.185974,200.892838 319.665070,203.932938 
	C323.471771,207.259323 324.947357,211.553329 321.948730,216.788925 
	C313.225189,213.370758 305.117767,209.682083 297.010315,205.993408 
	C281.107544,200.788116 265.222168,195.528244 249.279892,190.446854 
	C247.295517,189.814362 245.009583,190.128036 242.364807,189.619232 
	C238.516098,188.517685 235.165985,187.800186 231.374054,187.081635 
	C228.460083,186.898499 225.990738,186.643646 223.515228,186.547623 
	C215.080185,186.220459 206.746796,186.487808 198.912140,191.128342 
	C195.779449,192.730728 192.775696,194.125702 190.301208,196.163391 
	C187.094971,198.803650 184.310562,201.956146 181.344543,204.888123 
z"/>
<path fill="#FAFAFA" opacity="1.000000" stroke="none" 
	d="
M247.076645,276.072784 
	C240.742722,281.554443 233.789078,281.383514 227.368881,276.963776 
	C221.963943,273.242920 216.822693,268.816559 212.527817,263.866852 
	C200.152908,249.605103 190.685425,233.492126 184.371613,215.414490 
	C189.453568,215.359116 194.159225,215.682236 198.952545,216.363953 
	C200.389648,219.097580 201.743652,221.470062 203.087814,223.848068 
	C211.486694,238.706818 220.708405,252.961990 233.182098,265.196960 
	C237.034531,268.235291 240.879013,270.901154 244.661621,273.652130 
	C245.571960,274.314178 246.277115,275.258362 247.076645,276.072784 
z"/>
<path fill="#F2F2F2" opacity="1.000000" stroke="none" 
	d="
M231.815857,187.082687 
	C235.165985,187.800186 238.516098,188.517685 241.930573,189.608994 
	C245.811157,203.896667 250.111099,217.702881 253.242020,231.769287 
	C254.835693,238.929199 254.327255,246.556976 254.307129,254.406769 
	C252.546387,254.048737 251.189362,253.337753 249.960342,252.449585 
	C247.017532,250.322891 244.134933,248.112854 241.195526,245.473633 
	C239.575684,231.219360 238.236938,217.392548 236.280609,203.653671 
	C235.480148,198.032074 233.344254,192.600632 231.815857,187.082687 
z"/>
<path fill="#F2F2F2" opacity="1.000000" stroke="none" 
	d="
M225.545349,169.808624 
	C217.494202,152.245316 208.519913,135.215439 196.671890,119.846474 
	C195.509750,118.338966 194.340408,116.837006 193.830627,114.857880 
	C209.843994,130.282959 222.250824,148.341507 231.864868,168.559753 
	C229.554672,169.202484 227.550003,169.505554 225.545349,169.808624 
z"/>
<path fill="#A9A8A8" opacity="1.000000" stroke="none" 
	d="
M296.899658,206.426529 
	C305.117767,209.682083 313.225189,213.370758 321.708374,217.059387 
	C318.494843,221.593842 313.143951,221.283356 308.216919,221.954407 
	C305.792603,222.284592 303.285034,222.003342 300.368530,221.837097 
	C302.362946,220.178253 300.178650,219.542191 299.315521,218.841751 
	C294.877014,215.239914 290.386139,211.702637 285.866089,207.819229 
	C289.475433,207.283646 293.132202,207.071640 296.899658,206.426529 
z"/>
<path fill="#B7B7B7" opacity="1.000000" stroke="none" 
	d="
M181.281143,205.248489 
	C184.310562,201.956146 187.094971,198.803650 190.301208,196.163391 
	C192.775696,194.125702 195.779449,192.730728 198.742691,191.452698 
	C193.733139,197.399734 195.776321,203.784164 196.376221,210.041351 
	C191.522705,210.373581 187.121048,210.718140 182.719391,211.062698 
	C182.218842,209.244751 181.718292,207.426804 181.281143,205.248489 
z"/>
<path fill="#B7B7B7" opacity="1.000000" stroke="none" 
	d="
M241.228027,245.936478 
	C244.134933,248.112854 247.017532,250.322891 249.960342,252.449585 
	C251.189362,253.337753 252.546387,254.048737 254.194061,254.853821 
	C253.799179,259.029694 253.055450,263.192047 251.823730,267.501587 
	C247.590942,264.762543 243.846146,261.876282 240.053864,258.560028 
	C240.413574,254.065491 240.820786,250.000992 241.228027,245.936478 
z"/>
<path fill="#898889" opacity="1.000000" stroke="none" 
	d="
M247.396576,275.989899 
	C246.277115,275.258362 245.571960,274.314178 244.661621,273.652130 
	C240.879013,270.901154 237.034531,268.235291 233.573456,265.194397 
	C235.663361,264.237885 237.392548,263.625122 239.418289,263.167725 
	C243.139877,266.213562 246.564896,269.104034 249.989914,271.994507 
	C249.232117,273.298676 248.474319,274.602844 247.396576,275.989899 
z"/>
<path fill="#F2F2F2" opacity="1.000000" stroke="none" 
	d="
M182.748962,211.428986 
	C187.121048,210.718140 191.522705,210.373581 196.479309,210.398041 
	C197.644470,212.513153 198.254684,214.259247 198.864899,216.005356 
	C194.159225,215.682236 189.453568,215.359116 184.275085,215.048981 
	C183.461014,213.973053 183.119766,212.884155 182.748962,211.428986 
z"/>
<path fill="#A9A8A8" opacity="1.000000" stroke="none" 
	d="
M250.240540,271.781647 
	C246.564896,269.104034 243.139877,266.213562 239.422241,262.819519 
	C239.453537,261.207306 239.777435,260.098694 240.101349,258.990051 
	C243.846146,261.876282 247.590942,264.762543 251.623993,267.803162 
	C251.438538,269.161316 250.964844,270.365051 250.240540,271.781647 
z"/>
<path fill="#A9A8A8" opacity="1.000000" stroke="none" 
	d="
M225.585846,170.246918 
	C227.550003,169.505554 229.554672,169.202484 231.957611,168.923218 
	C233.064850,170.166382 233.773788,171.385696 234.738190,172.804840 
	C231.885498,172.886215 228.777390,172.767761 225.348633,172.415833 
	C225.227448,171.683304 225.426910,171.184250 225.585846,170.246918 
z"/>
<path fill="#030303" opacity="1.000000" stroke="none" 
	d="
M240.053864,258.560028 
	C239.777435,260.098694 239.453537,261.207306 239.125671,262.664154 
	C237.392548,263.625122 235.663361,264.237885 233.542801,264.853210 
	C220.708405,252.961990 211.486694,238.706818 203.087814,223.848068 
	C201.743652,221.470062 200.389648,219.097580 198.952545,216.363953 
	C198.254684,214.259247 197.644470,212.513153 196.931183,210.410355 
	C195.776321,203.784164 193.733139,197.399734 199.106949,191.531036 
	C206.746796,186.487808 215.080185,186.220459 223.515228,186.547623 
	C225.990738,186.643646 228.460083,186.898499 231.374054,187.081635 
	C233.344254,192.600632 235.480148,198.032074 236.280609,203.653671 
	C238.236938,217.392548 239.575684,231.219360 241.195526,245.473633 
	C240.820786,250.000992 240.413574,254.065491 240.053864,258.560028 
z"/>
</svg>