<?xml version="1.0" standalone="no"?>
<!DOCTYPE svg PUBLIC "-//W3C//DTD SVG 20010904//EN"
 "http://www.w3.org/TR/2001/REC-SVG-20010904/DTD/svg10.dtd">
<svg version="1.0" xmlns="http://www.w3.org/2000/svg"
 width="1000.000000pt" height="1004.000000pt" viewBox="0 0 1000.000000 1004.000000"
 preserveAspectRatio="xMidYMid meet">

<g transform="translate(0.000000,1004.000000) scale(0.100000,-0.100000)"
fill="#000000" stroke="none">
<path d="M0 10011 c0 -16 6 -31 14 -34 41 -16 40 -2 39 -2362 -1 -1243 -5
-2942 -8 -3775 -5 -1091 -4 -1607 5 -1845 9 -259 9 -415 -1 -727 -10 -323 -10
-435 0 -595 10 -155 11 -238 2 -382 -12 -182 -7 -229 18 -183 8 15 11 1360 12
4884 0 2675 4 4898 8 4941 6 69 5 78 -11 83 -10 3 -18 10 -18 15 0 5 -13 9
-30 9 -26 0 -30 -3 -30 -29z"/>
<path d="M156 10025 c-18 -14 -18 -15 -1 -21 10 -4 36 -2 59 4 60 17 9703 17
9723 0 10 -8 13 -22 9 -42 -9 -49 -25 -8752 -17 -9326 5 -401 10 -521 20 -542
11 -22 12 -30 1 -43 -11 -13 -530 -15 -4941 -15 l-4928 0 -16 23 c-12 15 -19
18 -22 10 -3 -7 -13 -13 -24 -13 -14 0 -19 -7 -19 -30 l0 -30 4999 0 5000 0 0
97 c0 54 -4 127 -10 163 -6 41 -12 1246 -17 3245 -11 4913 -7 6454 18 6479 6
6 10 20 10 33 l0 23 -4912 0 c-4261 -1 -4916 -3 -4932 -15z"/>
<path d="M6190 6232 c-222 -198 -1695 -1510 -1734 -1544 -25 -21 -27 -26 -12
-31 13 -5 28 5 54 34 43 47 277 268 372 349 35 30 129 113 208 184 78 72 165
145 192 163 27 18 53 39 57 47 7 12 82 80 301 274 30 26 77 68 105 93 160 144
247 219 303 264 35 28 121 102 191 166 70 64 138 121 151 128 12 6 22 16 22
21 0 30 -53 -7 -210 -148z"/>
<path d="M4960 6325 c0 -5 5 -17 10 -25 5 -8 10 -10 10 -5 0 6 -5 17 -10 25
-5 8 -10 11 -10 5z"/>
<path d="M4987 6249 c4 -13 8 -18 11 -10 2 7 -1 18 -6 23 -8 8 -9 4 -5 -13z"/>
<path d="M3780 5975 c0 -135 3 -245 8 -245 4 0 6 108 4 240 l-3 239 68 4 68 3
-72 2 -73 2 0 -245z"/>
<path d="M4140 6209 c25 -4 65 -7 90 -7 l45 0 -40 9 c-22 4 -62 8 -90 7 l-50
-1 45 -8z"/>
<path d="M5007 6178 c8 -44 13 -48 13 -10 0 17 -4 34 -10 37 -6 4 -7 -6 -3
-27z"/>
<path d="M4285 6190 c3 -5 14 -10 24 -10 9 0 22 -5 29 -12 6 -6 15 -9 18 -5 4
4 -9 14 -29 22 -43 18 -50 19 -42 5z"/>
<path d="M4380 6146 c0 -2 8 -10 18 -17 15 -13 16 -12 3 4 -13 16 -21 21 -21
13z"/>
<path d="M5024 6005 c0 -49 1 -71 3 -48 2 23 2 64 0 90 -2 26 -3 8 -3 -42z"/>
<path d="M5002 5835 c-8 -33 -16 -67 -19 -75 -4 -10 -2 -11 4 -5 15 16 35 89
31 116 -2 16 -7 5 -16 -36z"/>
<path d="M4158 5733 c6 -2 18 -2 25 0 6 3 1 5 -13 5 -14 0 -19 -2 -12 -5z"/>
<path d="M4949 5688 c-54 -110 -164 -216 -289 -278 -55 -28 -52 -24 -44 -44 6
-15 8 -14 18 6 6 13 23 25 36 28 14 3 39 14 55 25 58 37 173 145 190 177 9 18
28 53 41 77 14 24 23 48 22 53 -2 5 -15 -15 -29 -44z"/>
<path d="M3780 4980 l0 -310 -277 -3 -278 -2 280 0 280 0 3 303 2 302 108 1
c59 1 113 1 120 0 6 -1 12 3 12 9 0 6 -45 10 -125 10 l-125 0 0 -310z"/>
<path d="M4100 5161 c5 -11 15 -23 21 -27 6 -3 3 5 -6 20 -20 30 -30 35 -15 7z"/>
<path d="M6711 4894 c0 -11 3 -14 6 -6 3 7 2 16 -1 19 -3 4 -6 -2 -5 -13z"/>
<path d="M5502 4633 l2 -248 6 240 5 240 190 5 190 6 -197 2 -198 2 2 -247z"/>
<path d="M5935 4861 c11 -5 30 -10 43 -10 12 -1 31 -5 42 -11 11 -5 29 -15 41
-21 12 -6 23 -8 27 -5 9 9 -81 45 -128 51 -33 4 -39 3 -25 -4z"/>
<path d="M6727 4823 c8 -50 13 -55 13 -10 0 20 -4 38 -9 42 -6 3 -7 -10 -4
-32z"/>
<path d="M6743 4645 c0 -44 2 -61 4 -37 2 23 2 59 0 80 -2 20 -4 1 -4 -43z"/>
<path d="M4160 4124 c-661 -497 -797 -604 -766 -604 10 0 110 71 141 101 17
16 34 29 39 29 10 0 78 56 135 110 44 43 68 62 103 85 67 43 128 88 152 114
17 17 33 31 38 31 4 0 44 28 88 63 44 34 101 77 127 94 76 51 95 66 134 101
20 17 40 32 44 32 4 0 31 19 59 43 28 23 62 51 76 60 14 10 53 39 87 65 235
181 238 183 286 204 15 7 27 20 27 30 0 10 -1 18 -2 18 -2 0 -347 -259 -768
-576z"/>
<path d="M6732 4540 c-1 -14 -5 -36 -8 -50 -5 -19 -4 -22 5 -14 7 7 11 28 8
50 -2 22 -4 28 -5 14z"/>
<path d="M6711 4453 c0 -6 -4 -20 -7 -30 -5 -14 -4 -15 5 -7 7 7 11 20 8 30
-3 11 -5 14 -6 7z"/>
<path d="M4925 3940 c0 -283 1 -399 2 -258 2 142 2 374 0 515 -1 142 -2 26 -2
-257z"/>
<path d="M6660 4332 c-43 -83 -150 -192 -240 -244 -35 -21 -57 -38 -47 -38 37
0 183 116 248 197 25 31 80 135 77 144 -2 5 -19 -22 -38 -59z"/>
<path d="M6334 4039 c-3 -6 -1 -16 5 -22 8 -8 11 -5 11 11 0 24 -5 28 -16 11z"/>
<path d="M5598 3942 l-98 -3 2 -302 3 -302 5 295 5 295 105 5 c130 6 111 16
-22 12z"/>
<path d="M5730 3936 c0 -2 7 -7 16 -10 8 -3 12 -2 9 4 -6 10 -25 14 -25 6z"/>
<path d="M6030 3501 c5 -11 15 -23 21 -27 6 -3 3 5 -6 20 -20 30 -30 35 -15 7z"/>
<path d="M6077 3429 c10 -17 24 -36 32 -42 8 -7 2 7 -14 31 -32 49 -45 57 -18
11z"/>
<path d="M6775 3377 c10 -15 20 -25 23 -22 3 3 -5 16 -17 28 l-23 22 17 -28z"/>
<path d="M4922 3370 c0 -14 2 -19 5 -12 2 6 2 18 0 25 -3 6 -5 1 -5 -13z"/>
<path d="M6193 3323 c9 -2 25 -2 35 0 9 3 1 5 -18 5 -19 0 -27 -2 -17 -5z"/>
<path d="M6753 3323 c9 -2 25 -2 35 0 9 3 1 5 -18 5 -19 0 -27 -2 -17 -5z"/>
</g>
</svg>
