<?xml version="1.0" encoding="UTF-8"?>
<svg xmlns="http://www.w3.org/2000/svg" viewBox="0 0 100 100">
  <defs>
    <linearGradient id="logoGradient2" x1="0%" y1="0%" x2="100%" y2="100%">
      <stop offset="0%" style="stop-color:#00FFFF;stop-opacity:1" />
      <stop offset="100%" style="stop-color:#2563EB;stop-opacity:1" />
    </linearGradient>
    
    <filter id="techGlow">
      <feGaussianBlur stdDeviation="1.5" result="coloredBlur"/>
      <feMerge>
        <feMergeNode in="coloredBlur"/>
        <feMergeNode in="SourceGraphic"/>
      </feMerge>
    </filter>
  </defs>

  <!-- Circuit board pattern background -->
  <path d="M10 10 L30 10 L30 15 M10 10 L10 30 L15 30
           M90 90 L70 90 L70 85 M90 90 L90 70 L85 70
           M10 90 L30 90 L30 85 M10 90 L10 70 L15 70
           M90 10 L70 10 L70 15 M90 10 L90 30 L85 30"
        stroke="url(#logoGradient2)"
        stroke-width="1"
        fill="none"
        opacity="0.5"
        filter="url(#techGlow)"/>

  <!-- Main R shapes -->
  <path d="M25 20 L25 80 L35 80 L35 60 L45 60 L60 80 L72 80 L55 57
           C65 54 70 47 70 40 C70 28 60 20 48 20 Z
           M35 30 L48 30 C55 30 60 35 60 40 C60 45 55 50 48 50 L35 50 Z" 
        fill="url(#logoGradient2)"
        filter="url(#techGlow)"/>

  <path d="M40 20 L40 80 L50 80 L50 60 L60 60 L75 80 L87 80 L70 57
           C80 54 85 47 85 40 C85 28 75 20 63 20 Z
           M50 30 L63 30 C70 30 75 35 75 40 C75 45 70 50 63 50 L50 50 Z" 
        fill="url(#logoGradient2)"
        opacity="0.8"
        filter="url(#techGlow)"/>

  <!-- Data points -->
  <circle cx="25" cy="20" r="2" fill="url(#logoGradient2)" filter="url(#techGlow)">
    <animate attributeName="opacity" values="1;0.3;1" dur="3s" repeatCount="indefinite"/>
  </circle>
  <circle cx="75" cy="80" r="2" fill="url(#logoGradient2)" filter="url(#techGlow)">
    <animate attributeName="opacity" values="0.3;1;0.3" dur="3s" repeatCount="indefinite"/>
  </circle>
</svg> 